<svg width="40" height="40" viewBox="0 0 40 40" fill="none" xmlns="http://www.w3.org/2000/svg">
<path d="M19.8027 13.8923C18.2351 13.8923 16.7316 14.515 15.6231 15.6236C14.5146 16.7321 13.8918 18.2355 13.8918 19.8032C13.8918 21.3709 14.5146 22.8744 15.6231 23.9829C16.7316 25.0914 18.2351 25.7142 19.8027 25.7142C21.3704 25.7142 22.8739 25.0914 23.9824 23.9829C25.0909 22.8744 25.7137 21.3709 25.7137 19.8032C25.7137 18.2355 25.0909 16.7321 23.9824 15.6236C22.8739 14.515 21.3704 13.8923 19.8027 13.8923ZM-nan -nanL19.8027 9.95166C22.4155 9.95166 24.9213 10.9896 26.7688 12.8371C28.6164 14.6846 29.6543 17.1904 29.6543 19.8032C29.6543 22.416 28.6164 24.9218 26.7688 26.7693C24.9213 28.6169 22.4155 29.6548 19.8027 29.6548C17.1899 29.6548 14.6842 28.6169 12.8366 26.7693C10.9891 24.9218 9.95117 22.416 9.95117 19.8032C9.95117 17.1904 10.9891 14.6846 12.8366 12.8371C14.6842 10.9896 17.1899 9.95166 19.8027 9.95166L-nan -nanZM-nan -nanL32.6098 9.45908C32.6098 10.1123 32.3503 10.7387 31.8884 11.2006C31.4265 11.6625 30.8001 11.922 30.1469 11.922C29.4937 11.922 28.8672 11.6625 28.4053 11.2006C27.9435 10.7387 27.684 10.1123 27.684 9.45908C27.684 8.80588 27.9435 8.17944 28.4053 7.71756C28.8672 7.25567 29.4937 6.99619 30.1469 6.99619C30.8001 6.99619 31.4265 7.25567 31.8884 7.71756C32.3503 8.17944 32.6098 8.80588 32.6098 9.45908L-nan -nanZM19.8027 4.04072C14.9282 4.04072 14.1322 4.05451 11.8643 4.155C10.3196 4.2279 9.28324 4.43478 8.32172 4.80914C7.46661 5.14016 6.8499 5.53619 6.19379 6.19427C5.57709 6.79009 5.10293 7.5175 4.80669 8.32221C4.43233 9.28766 4.22544 10.3221 4.15451 11.8648C4.05206 14.0401 4.04023 14.8006 4.04023 19.8032C4.04023 24.6778 4.05403 25.4738 4.15451 27.7416C4.22741 29.2844 4.4343 30.3227 4.80669 31.2823C5.14164 32.1394 5.5357 32.7561 6.18985 33.4102C6.85384 34.0722 7.47055 34.4683 8.31778 34.7953C9.29112 35.1717 10.3275 35.3805 11.8643 35.4514C14.0396 35.5539 14.8001 35.5657 19.8027 35.5657C24.6773 35.5657 25.4733 35.5519 27.7411 35.4514C29.2819 35.3785 30.3203 35.1717 31.2818 34.7993C32.1349 34.4663 32.7556 34.0703 33.4097 33.4161C34.0737 32.7521 34.4697 32.1354 34.7968 31.2882C35.1712 30.3168 35.38 29.2785 35.451 27.7416C35.5534 25.5664 35.5652 24.8058 35.5652 19.8032C35.5652 14.9287 35.5514 14.1327 35.451 11.8648C35.3781 10.324 35.1712 9.28372 34.7968 8.32221C34.4999 7.51833 34.0266 6.7912 33.4117 6.19427C32.8161 5.57726 32.0886 5.10305 31.2837 4.80717C30.3183 4.43281 29.2819 4.22593 27.7411 4.155C25.5659 4.05254 24.8054 4.04072 19.8027 4.04072ZM19.8027 0.100098C25.1561 0.100098 25.824 0.119801 27.9244 0.218316C30.0227 0.316832 31.4512 0.645874 32.7083 1.13451C34.0087 1.63497 35.1042 2.31276 36.1997 3.40628C37.2016 4.39123 37.9768 5.58267 38.4714 6.89768C38.9581 8.15276 39.2891 9.58321 39.3876 11.6816C39.4802 13.7819 39.5059 14.4499 39.5059 19.8032C39.5059 25.1566 39.4862 25.8245 39.3876 27.9249C39.2891 30.0232 38.9581 31.4517 38.4714 32.7088C37.9782 34.0245 37.2028 35.2162 36.1997 36.2002C35.2144 37.2017 34.0231 37.9769 32.7083 38.4719C31.4532 38.9586 30.0227 39.2896 27.9244 39.3881C25.824 39.4807 25.1561 39.5063 19.8027 39.5063C14.4494 39.5063 13.7815 39.4866 11.6811 39.3881C9.58272 39.2896 8.15425 38.9586 6.89719 38.4719C5.58166 37.9783 4.39002 37.2029 3.40579 36.2002C2.40371 35.2154 1.62844 34.0239 1.13402 32.7088C0.645386 31.4537 0.316344 30.0232 0.217828 27.9249C0.125223 25.8245 0.0996094 25.1566 0.0996094 19.8032C0.0996094 14.4499 0.119312 13.7819 0.217828 11.6816C0.316344 9.58124 0.645386 8.15473 1.13402 6.89768C1.62707 5.58186 2.40252 4.3901 3.40579 3.40628C4.3903 2.40385 5.58186 1.62853 6.89719 1.13451C8.15425 0.645874 9.58075 0.316832 11.6811 0.218316C13.7815 0.125712 14.4494 0.100098 19.8027 0.100098Z" fill="#1C1C27"/>
</svg>
