<svg width="208" height="18" viewBox="0 0 208 18" fill="none" xmlns="http://www.w3.org/2000/svg">
<path d="M12.15 10.5H7.725V14.875H5.05V10.5H0.625V8H5.05V3.625H7.725V8H12.15V10.5ZM27.802 0.499999V2.675L21.002 18H17.527L24.102 3.25H17.227V6.225H14.202V0.499999H27.802ZM49.9211 0.499999V2.675L43.1211 18H39.6461L46.2211 3.25H39.3461V6.225H36.3211V0.499999H49.9211ZM65.1311 0.499999V2.675L58.3311 18H54.8561L61.4311 3.25H54.5561V6.225H51.5311V0.499999H65.1311ZM80.341 0.499999V2.675L73.541 18H70.066L76.641 3.25H69.766V6.225H66.741V0.499999H80.341ZM102.46 0.499999V2.675L95.6602 18H92.1852L98.7602 3.25H91.8852V6.225H88.8602V0.499999H102.46ZM117.67 0.499999V2.675L110.87 18H107.395L113.97 3.25H107.095V6.225H104.07V0.499999H117.67ZM132.88 0.499999V2.675L126.08 18H122.605L129.18 3.25H122.305V6.225H119.28V0.499999H132.88ZM154.999 0.499999V2.675L148.199 18H144.724L151.299 3.25H144.424V6.225H141.399V0.499999H154.999ZM170.209 0.499999V2.675L163.409 18H159.934L166.509 3.25H159.634V6.225H156.609V0.499999H170.209ZM192.328 0.499999V2.675L185.528 18H182.053L188.628 3.25H181.753V6.225H178.728V0.499999H192.328ZM207.538 0.499999V2.675L200.738 18H197.263L203.838 3.25H196.963V6.225H193.938V0.499999H207.538Z" fill="black"/>
</svg>
